<?xml version="1.0" encoding="utf-8"?>
<!-- Generator: Adobe Illustrator 16.0.0, SVG Export Plug-In . SVG Version: 6.00 Build 0)  -->
<!DOCTYPE svg PUBLIC "-//W3C//DTD SVG 1.1//EN" "http://www.w3.org/Graphics/SVG/1.1/DTD/svg11.dtd">
<svg version="1.1" xmlns="http://www.w3.org/2000/svg" xmlns:xlink="http://www.w3.org/1999/xlink" x="0px" y="0px" width="100px"
	 height="100px" viewBox="0 0 100 100" enable-background="new 0 0 100 100" xml:space="preserve">
	 <defs>
		 <style><![CDATA[
			 #cloud {
			   animation: cloudy .6s infinite;
			   transition-timing-function: ease;
			 }

			 @keyframes cloudy {
			   0% {
			     transform: translateY(5%);
			   }
			   50% {
			     transform: translateY(0%);
			   }
			   100% {
			     transform: translateY(5%);
			   }
			 }
			 ]]>
		 </style>
	 </defs>
<g id="Layer_6">
	<g>
		<path id="cloud" d="M41.311,17.982c2.896,0,5.762,0.324,8.49,0.946c18.823,4.295,23.596,22.241,21.653,26.983
			c-0.774,1.888-1.158,2.492-0.923,2.492c0.339,0,1.963-1.253,5.552-1.728c0.847-0.112,1.656-0.166,2.437-0.166
			c18.793,0.004,18.239,31.256-2.607,31.256c0,0-22.194-0.195-36.962-0.195c-3.411,0-6.427,0.011-8.68,0.036
			c-0.074,0.001-0.148,0.001-0.222,0.001c-14.198,0-26.235-15.175-20.837-35.913C13.544,25.048,27.773,17.981,41.311,17.982
			 M41.311,10.982L41.311,10.982c-8.612,0-16.695,2.345-23.375,6.783C10.24,22.877,4.88,30.542,2.437,39.931
			c-3.262,12.531-1.248,24.744,5.526,33.506c5.488,7.099,13.537,11.17,22.085,11.17l0.3-0.001c2.077-0.024,4.97-0.036,8.603-0.036
			c14.567,0,36.679,0.193,36.9,0.195h0.03h0.031c7.001,0,13.202-2.724,17.463-7.669c3.694-4.287,5.729-9.93,5.729-15.89
			c0.001-12.569-8.655-21.695-20.583-21.697c-0.008,0-0.016,0-0.023,0c-0.507-2.973-1.574-6.143-3.155-9.188
			c-2.803-5.399-9.646-14.946-23.984-18.218C48.097,11.36,44.716,10.982,41.311,10.982L41.311,10.982L41.311,10.982z">
			<!-- <animateTransform id="asd"
				attributeName="transform"
				attributeType="XML"
				type="translate"
				begin="0.6"
				dur=".8s"
				values="0,5; 0,-5;0,5"
				repeatCount="indefinite"/> -->
		</path>
	</g>
</g>
</svg>
