<?xml version="1.0" encoding="utf-8"?>
<!-- Generator: Adobe Illustrator 16.0.0, SVG Export Plug-In . SVG Version: 6.00 Build 0)  -->
<!DOCTYPE svg PUBLIC "-//W3C//DTD SVG 1.1//EN" "http://www.w3.org/Graphics/SVG/1.1/DTD/svg11.dtd">
<svg version="1.1" xmlns="http://www.w3.org/2000/svg" xmlns:xlink="http://www.w3.org/1999/xlink" x="0px" y="0px" width="100px"
	 height="150px" viewBox="0 0 100 100" enable-background="new 0 0 100 100" xml:space="preserve">
<g id="Layer_1">
	<g>
		<path fill="#ffffff" d="M41.522,7.649c2.265,0,4.507,0.253,6.642,0.74c14.726,3.36,18.459,17.399,16.939,21.109
			c-0.606,1.477-0.906,1.949-0.722,1.949c0.265,0,1.535-0.98,4.343-1.352c0.661-0.087,1.297-0.129,1.906-0.129
			c14.704,0,14.27,24.452-2.04,24.452c0,0-17.393-0.153-28.945-0.153c-2.656,0-5.004,0.009-6.761,0.028
			c-0.059,0.001-0.116,0.001-0.174,0.001c-11.106,0-20.523-11.871-16.3-28.095C19.8,13.177,30.932,7.648,41.522,7.649 M41.523,0.649
			L41.523,0.649C25.914,0.648,13.398,9.985,9.636,24.436c-2.671,10.263-0.998,20.296,4.593,27.528
			c4.583,5.93,11.32,9.33,18.482,9.33l0.253-0.001c1.614-0.019,3.862-0.028,6.682-0.028c11.388,0,28.709,0.151,28.883,0.153h0.03
			h0.031c5.928,0,11.19-2.319,14.817-6.53c3.129-3.631,4.852-8.399,4.852-13.427c0-10.276-6.817-17.85-16.385-18.455
			c-0.534-2.31-1.407-4.538-2.377-6.406C65.502,8.902,58.479,3.563,49.721,1.564C47.059,0.957,44.3,0.649,41.523,0.649L41.523,0.649
			z"/>
	</g>
	<path stroke="#ffffff" stroke-width="7" stroke-linecap="round" stroke-miterlimit="10" d="M29.802,82.91
		c0,0.813-0.371,1.477-0.829,1.477l0,0c-0.457,0-0.828-0.664-0.828-1.477V67.643c0-0.813,0.371-1.477,0.828-1.477l0,0
		c0.458,0,0.829,0.663,0.829,1.477V82.91z">
		<animateTransform id="asd"
			attributeName="transform"
			attributeType="XML"
			type="translate"
			begin="0.6"
			dur="1s"
			values="0,5; 0,-5;0,5"
			repeatCount="indefinite"/>
	</path>
	<path stroke="#ffffff" stroke-width="7" stroke-linecap="round" stroke-miterlimit="10" d="M69.424,82.91
		c0,0.813-0.372,1.477-0.828,1.477l0,0c-0.457,0-0.829-0.664-0.829-1.477V67.643c0-0.813,0.372-1.477,0.829-1.477l0,0
		c0.456,0,0.828,0.663,0.828,1.477V82.91z">
		<animateTransform id="asd"
			attributeName="transform"
			attributeType="XML"
			type="translate"
			begin="0.6"
			dur="1s"
			values="0,5; 0,-5;0,5"
			repeatCount="indefinite"/>
	</path>
	<path stroke="#ffffff" stroke-width="7" stroke-linecap="round" stroke-miterlimit="10" d="M49.148,93.54
		c0,0.816-0.37,1.479-0.827,1.479l0,0c-0.458,0-0.828-0.663-0.828-1.479V78.274c0-0.813,0.37-1.478,0.828-1.478l0,0
		c0.457,0,0.827,0.664,0.827,1.478V93.54z">
		<animateTransform id="asd"
			attributeName="transform"
			attributeType="XML"
			type="translate"
			begin="0.4"
			dur="1s"
			values="0,5; 0,-5;0,5"
			repeatCount="indefinite"/>
	</path>
</g>
</svg>
